<mxfile host="app.diagrams.net" modified="2020-11-24T14:29:49.484Z" agent="5.0 (Windows NT 10.0; Win64; x64) AppleWebKit/537.36 (KHTML, like Gecko) Chrome/87.0.4280.66 Safari/537.36" etag="GN5eJIoBj-KN2esRmQVK" version="13.10.2" type="github">
  <diagram id="C5RBs43oDa-KdzZeNtuy" name="Page-1">
    <mxGraphModel dx="3903" dy="762" grid="1" gridSize="10" guides="1" tooltips="1" connect="1" arrows="1" fold="1" page="1" pageScale="1" pageWidth="827" pageHeight="1169" math="0" shadow="0">
      <root>
        <mxCell id="WIyWlLk6GJQsqaUBKTNV-0" />
        <mxCell id="WIyWlLk6GJQsqaUBKTNV-1" parent="WIyWlLk6GJQsqaUBKTNV-0" />
        <mxCell id="ZkBrrvWP60tN9h73OWg3-8" value="NIVEL" style="swimlane;fontStyle=1;align=center;verticalAlign=top;childLayout=stackLayout;horizontal=1;startSize=26;horizontalStack=0;resizeParent=1;resizeParentMax=0;resizeLast=0;collapsible=1;marginBottom=0;fillColor=#B2C9AB;strokeColor=#788AA3;fontColor=#46495D;" parent="WIyWlLk6GJQsqaUBKTNV-1" vertex="1">
          <mxGeometry x="220" y="170" width="160" height="86" as="geometry" />
        </mxCell>
        <mxCell id="ZkBrrvWP60tN9h73OWg3-9" value="# infectados : int " style="text;strokeColor=none;fillColor=none;align=left;verticalAlign=top;spacingLeft=4;spacingRight=4;overflow=hidden;rotatable=0;points=[[0,0.5],[1,0.5]];portConstraint=eastwest;fontColor=#46495D;" parent="ZkBrrvWP60tN9h73OWg3-8" vertex="1">
          <mxGeometry y="26" width="160" height="26" as="geometry" />
        </mxCell>
        <mxCell id="ZkBrrvWP60tN9h73OWg3-10" value="" style="line;strokeWidth=1;fillColor=none;align=left;verticalAlign=middle;spacingTop=-1;spacingLeft=3;spacingRight=3;rotatable=0;labelPosition=right;points=[];portConstraint=eastwest;strokeColor=#788AA3;fontColor=#46495D;" parent="ZkBrrvWP60tN9h73OWg3-8" vertex="1">
          <mxGeometry y="52" width="160" height="8" as="geometry" />
        </mxCell>
        <mxCell id="ZkBrrvWP60tN9h73OWg3-11" value="+ method(type): type" style="text;strokeColor=none;fillColor=none;align=left;verticalAlign=top;spacingLeft=4;spacingRight=4;overflow=hidden;rotatable=0;points=[[0,0.5],[1,0.5]];portConstraint=eastwest;fontColor=#46495D;" parent="ZkBrrvWP60tN9h73OWg3-8" vertex="1">
          <mxGeometry y="60" width="160" height="26" as="geometry" />
        </mxCell>
        <mxCell id="ZkBrrvWP60tN9h73OWg3-20" value="PROYECTIL" style="swimlane;fontStyle=3;align=center;verticalAlign=top;childLayout=stackLayout;horizontal=1;startSize=26;horizontalStack=0;resizeParent=1;resizeParentMax=0;resizeLast=0;collapsible=1;marginBottom=0;fillColor=#B2C9AB;strokeColor=#788AA3;fontColor=#46495D;" parent="WIyWlLk6GJQsqaUBKTNV-1" vertex="1">
          <mxGeometry x="-970" y="530" width="180" height="134" as="geometry" />
        </mxCell>
        <mxCell id="ZkBrrvWP60tN9h73OWg3-21" value="# x: int&#xa;# y: int&#xa;# velocidad:  int&#xa;# capacidad_desinfeccion: int" style="text;strokeColor=none;fillColor=none;align=left;verticalAlign=top;spacingLeft=4;spacingRight=4;overflow=hidden;rotatable=0;points=[[0,0.5],[1,0.5]];portConstraint=eastwest;fontColor=#46495D;" parent="ZkBrrvWP60tN9h73OWg3-20" vertex="1">
          <mxGeometry y="26" width="180" height="74" as="geometry" />
        </mxCell>
        <mxCell id="ZkBrrvWP60tN9h73OWg3-22" value="" style="line;strokeWidth=1;fillColor=none;align=left;verticalAlign=middle;spacingTop=-1;spacingLeft=3;spacingRight=3;rotatable=0;labelPosition=right;points=[];portConstraint=eastwest;strokeColor=#788AA3;fontColor=#46495D;" parent="ZkBrrvWP60tN9h73OWg3-20" vertex="1">
          <mxGeometry y="100" width="180" height="8" as="geometry" />
        </mxCell>
        <mxCell id="ZkBrrvWP60tN9h73OWg3-23" value="+ method(type): type" style="text;strokeColor=none;fillColor=none;align=left;verticalAlign=top;spacingLeft=4;spacingRight=4;overflow=hidden;rotatable=0;points=[[0,0.5],[1,0.5]];portConstraint=eastwest;fontColor=#46495D;" parent="ZkBrrvWP60tN9h73OWg3-20" vertex="1">
          <mxGeometry y="108" width="180" height="26" as="geometry" />
        </mxCell>
        <mxCell id="ZkBrrvWP60tN9h73OWg3-24" value="INFECTADO&#xa;" style="swimlane;fontStyle=1;align=center;verticalAlign=top;childLayout=stackLayout;horizontal=1;startSize=26;horizontalStack=0;resizeParent=1;resizeParentMax=0;resizeLast=0;collapsible=1;marginBottom=0;fillColor=#B2C9AB;strokeColor=#788AA3;fontColor=#46495D;" parent="WIyWlLk6GJQsqaUBKTNV-1" vertex="1">
          <mxGeometry x="30" y="752" width="230" height="110" as="geometry" />
        </mxCell>
        <mxCell id="ZkBrrvWP60tN9h73OWg3-26" value="" style="line;strokeWidth=1;fillColor=none;align=left;verticalAlign=middle;spacingTop=-1;spacingLeft=3;spacingRight=3;rotatable=0;labelPosition=right;points=[];portConstraint=eastwest;strokeColor=#788AA3;fontColor=#46495D;" parent="ZkBrrvWP60tN9h73OWg3-24" vertex="1">
          <mxGeometry y="26" width="230" height="8" as="geometry" />
        </mxCell>
        <mxCell id="ZkBrrvWP60tN9h73OWg3-27" value="# rango_alcance: int&#xa;#capacidad_daño: String&#xa;# capacidad_desinfeccion : String" style="text;strokeColor=none;fillColor=none;align=left;verticalAlign=top;spacingLeft=4;spacingRight=4;overflow=hidden;rotatable=0;points=[[0,0.5],[1,0.5]];portConstraint=eastwest;fontColor=#46495D;" parent="ZkBrrvWP60tN9h73OWg3-24" vertex="1">
          <mxGeometry y="34" width="230" height="76" as="geometry" />
        </mxCell>
        <mxCell id="ZkBrrvWP60tN9h73OWg3-32" value="PREMIO" style="swimlane;fontStyle=3;align=center;verticalAlign=top;childLayout=stackLayout;horizontal=1;startSize=26;horizontalStack=0;resizeParent=1;resizeParentMax=0;resizeLast=0;collapsible=1;marginBottom=0;fillColor=#B2C9AB;strokeColor=#788AA3;fontColor=#46495D;" parent="WIyWlLk6GJQsqaUBKTNV-1" vertex="1">
          <mxGeometry x="690" y="530" width="160" height="86" as="geometry" />
        </mxCell>
        <mxCell id="ZkBrrvWP60tN9h73OWg3-33" value="+ field: type" style="text;strokeColor=none;fillColor=none;align=left;verticalAlign=top;spacingLeft=4;spacingRight=4;overflow=hidden;rotatable=0;points=[[0,0.5],[1,0.5]];portConstraint=eastwest;fontColor=#46495D;" parent="ZkBrrvWP60tN9h73OWg3-32" vertex="1">
          <mxGeometry y="26" width="160" height="26" as="geometry" />
        </mxCell>
        <mxCell id="ZkBrrvWP60tN9h73OWg3-34" value="" style="line;strokeWidth=1;fillColor=none;align=left;verticalAlign=middle;spacingTop=-1;spacingLeft=3;spacingRight=3;rotatable=0;labelPosition=right;points=[];portConstraint=eastwest;strokeColor=#788AA3;fontColor=#46495D;" parent="ZkBrrvWP60tN9h73OWg3-32" vertex="1">
          <mxGeometry y="52" width="160" height="8" as="geometry" />
        </mxCell>
        <mxCell id="ZkBrrvWP60tN9h73OWg3-35" value="+ method(type): type" style="text;strokeColor=none;fillColor=none;align=left;verticalAlign=top;spacingLeft=4;spacingRight=4;overflow=hidden;rotatable=0;points=[[0,0.5],[1,0.5]];portConstraint=eastwest;fontColor=#46495D;" parent="ZkBrrvWP60tN9h73OWg3-32" vertex="1">
          <mxGeometry y="60" width="160" height="26" as="geometry" />
        </mxCell>
        <mxCell id="ZkBrrvWP60tN9h73OWg3-36" value="PERSONAJE" style="swimlane;fontStyle=3;align=center;verticalAlign=top;childLayout=stackLayout;horizontal=1;startSize=26;horizontalStack=0;resizeParent=1;resizeParentMax=0;resizeLast=0;collapsible=1;marginBottom=0;fillColor=#B2C9AB;strokeColor=#788AA3;fontColor=#46495D;" parent="WIyWlLk6GJQsqaUBKTNV-1" vertex="1">
          <mxGeometry x="-140" y="530" width="250" height="104" as="geometry" />
        </mxCell>
        <mxCell id="ZkBrrvWP60tN9h73OWg3-37" value="# carga_viral: int&#xa;# velocidad_desplazamiento: int" style="text;strokeColor=none;fillColor=none;align=left;verticalAlign=top;spacingLeft=4;spacingRight=4;overflow=hidden;rotatable=0;points=[[0,0.5],[1,0.5]];portConstraint=eastwest;fontColor=#46495D;" parent="ZkBrrvWP60tN9h73OWg3-36" vertex="1">
          <mxGeometry y="26" width="250" height="44" as="geometry" />
        </mxCell>
        <mxCell id="ZkBrrvWP60tN9h73OWg3-38" value="" style="line;strokeWidth=1;fillColor=none;align=left;verticalAlign=middle;spacingTop=-1;spacingLeft=3;spacingRight=3;rotatable=0;labelPosition=right;points=[];portConstraint=eastwest;strokeColor=#788AA3;fontColor=#46495D;" parent="ZkBrrvWP60tN9h73OWg3-36" vertex="1">
          <mxGeometry y="70" width="250" height="8" as="geometry" />
        </mxCell>
        <mxCell id="ZkBrrvWP60tN9h73OWg3-39" value="+ method(type): type" style="text;strokeColor=none;fillColor=none;align=left;verticalAlign=top;spacingLeft=4;spacingRight=4;overflow=hidden;rotatable=0;points=[[0,0.5],[1,0.5]];portConstraint=eastwest;fontColor=#46495D;" parent="ZkBrrvWP60tN9h73OWg3-36" vertex="1">
          <mxGeometry y="78" width="250" height="26" as="geometry" />
        </mxCell>
        <mxCell id="ZkBrrvWP60tN9h73OWg3-40" value="JUGADOR" style="swimlane;fontStyle=1;align=center;verticalAlign=top;childLayout=stackLayout;horizontal=1;startSize=26;horizontalStack=0;resizeParent=1;resizeParentMax=0;resizeLast=0;collapsible=1;marginBottom=0;fillColor=#B2C9AB;strokeColor=#788AA3;fontColor=#46495D;" parent="WIyWlLk6GJQsqaUBKTNV-1" vertex="1">
          <mxGeometry x="-210" y="752" width="160" height="60" as="geometry" />
        </mxCell>
        <mxCell id="ZkBrrvWP60tN9h73OWg3-42" value="" style="line;strokeWidth=1;fillColor=none;align=left;verticalAlign=middle;spacingTop=-1;spacingLeft=3;spacingRight=3;rotatable=0;labelPosition=right;points=[];portConstraint=eastwest;strokeColor=#788AA3;fontColor=#46495D;" parent="ZkBrrvWP60tN9h73OWg3-40" vertex="1">
          <mxGeometry y="26" width="160" height="8" as="geometry" />
        </mxCell>
        <mxCell id="ZkBrrvWP60tN9h73OWg3-43" value="+ method(type): type" style="text;strokeColor=none;fillColor=none;align=left;verticalAlign=top;spacingLeft=4;spacingRight=4;overflow=hidden;rotatable=0;points=[[0,0.5],[1,0.5]];portConstraint=eastwest;fontColor=#46495D;" parent="ZkBrrvWP60tN9h73OWg3-40" vertex="1">
          <mxGeometry y="34" width="160" height="26" as="geometry" />
        </mxCell>
        <mxCell id="ZkBrrvWP60tN9h73OWg3-47" value="INFECTADO ALPHA" style="swimlane;fontStyle=1;align=center;verticalAlign=top;childLayout=stackLayout;horizontal=1;startSize=26;horizontalStack=0;resizeParent=1;resizeParentMax=0;resizeLast=0;collapsible=1;marginBottom=0;fillColor=#B2C9AB;strokeColor=#788AA3;fontColor=#46495D;" parent="WIyWlLk6GJQsqaUBKTNV-1" vertex="1">
          <mxGeometry x="-90" y="901" width="160" height="86" as="geometry" />
        </mxCell>
        <mxCell id="ZkBrrvWP60tN9h73OWg3-48" value="+ field: type" style="text;strokeColor=none;fillColor=none;align=left;verticalAlign=top;spacingLeft=4;spacingRight=4;overflow=hidden;rotatable=0;points=[[0,0.5],[1,0.5]];portConstraint=eastwest;fontColor=#46495D;" parent="ZkBrrvWP60tN9h73OWg3-47" vertex="1">
          <mxGeometry y="26" width="160" height="26" as="geometry" />
        </mxCell>
        <mxCell id="ZkBrrvWP60tN9h73OWg3-49" value="" style="line;strokeWidth=1;fillColor=none;align=left;verticalAlign=middle;spacingTop=-1;spacingLeft=3;spacingRight=3;rotatable=0;labelPosition=right;points=[];portConstraint=eastwest;strokeColor=#788AA3;fontColor=#46495D;" parent="ZkBrrvWP60tN9h73OWg3-47" vertex="1">
          <mxGeometry y="52" width="160" height="8" as="geometry" />
        </mxCell>
        <mxCell id="ZkBrrvWP60tN9h73OWg3-50" value="+ duplicar_Velocidad(): void" style="text;strokeColor=none;fillColor=none;align=left;verticalAlign=top;spacingLeft=4;spacingRight=4;overflow=hidden;rotatable=0;points=[[0,0.5],[1,0.5]];portConstraint=eastwest;fontColor=#46495D;" parent="ZkBrrvWP60tN9h73OWg3-47" vertex="1">
          <mxGeometry y="60" width="160" height="26" as="geometry" />
        </mxCell>
        <mxCell id="ZkBrrvWP60tN9h73OWg3-51" value="INFECTADO BETA" style="swimlane;fontStyle=1;align=center;verticalAlign=top;childLayout=stackLayout;horizontal=1;startSize=26;horizontalStack=0;resizeParent=1;resizeParentMax=0;resizeLast=0;collapsible=1;marginBottom=0;fillColor=#B2C9AB;strokeColor=#788AA3;fontColor=#46495D;" parent="WIyWlLk6GJQsqaUBKTNV-1" vertex="1">
          <mxGeometry x="230" y="895" width="160" height="86" as="geometry" />
        </mxCell>
        <mxCell id="ZkBrrvWP60tN9h73OWg3-52" value="+ field: type" style="text;strokeColor=none;fillColor=none;align=left;verticalAlign=top;spacingLeft=4;spacingRight=4;overflow=hidden;rotatable=0;points=[[0,0.5],[1,0.5]];portConstraint=eastwest;fontColor=#46495D;" parent="ZkBrrvWP60tN9h73OWg3-51" vertex="1">
          <mxGeometry y="26" width="160" height="26" as="geometry" />
        </mxCell>
        <mxCell id="ZkBrrvWP60tN9h73OWg3-53" value="" style="line;strokeWidth=1;fillColor=none;align=left;verticalAlign=middle;spacingTop=-1;spacingLeft=3;spacingRight=3;rotatable=0;labelPosition=right;points=[];portConstraint=eastwest;strokeColor=#788AA3;fontColor=#46495D;" parent="ZkBrrvWP60tN9h73OWg3-51" vertex="1">
          <mxGeometry y="52" width="160" height="8" as="geometry" />
        </mxCell>
        <mxCell id="ZkBrrvWP60tN9h73OWg3-54" value="+ method(type): type" style="text;strokeColor=none;fillColor=none;align=left;verticalAlign=top;spacingLeft=4;spacingRight=4;overflow=hidden;rotatable=0;points=[[0,0.5],[1,0.5]];portConstraint=eastwest;fontColor=#46495D;" parent="ZkBrrvWP60tN9h73OWg3-51" vertex="1">
          <mxGeometry y="60" width="160" height="26" as="geometry" />
        </mxCell>
        <mxCell id="ZkBrrvWP60tN9h73OWg3-57" value="OBJETOS PRECIOSOS" style="swimlane;fontStyle=1;align=center;verticalAlign=top;childLayout=stackLayout;horizontal=1;startSize=26;horizontalStack=0;resizeParent=1;resizeParentMax=0;resizeLast=0;collapsible=1;marginBottom=0;fillColor=#B2C9AB;strokeColor=#788AA3;fontColor=#46495D;" parent="WIyWlLk6GJQsqaUBKTNV-1" vertex="1">
          <mxGeometry x="800" y="877" width="160" height="86" as="geometry" />
        </mxCell>
        <mxCell id="ZkBrrvWP60tN9h73OWg3-58" value="+ field: type" style="text;strokeColor=none;fillColor=none;align=left;verticalAlign=top;spacingLeft=4;spacingRight=4;overflow=hidden;rotatable=0;points=[[0,0.5],[1,0.5]];portConstraint=eastwest;fontColor=#46495D;" parent="ZkBrrvWP60tN9h73OWg3-57" vertex="1">
          <mxGeometry y="26" width="160" height="26" as="geometry" />
        </mxCell>
        <mxCell id="ZkBrrvWP60tN9h73OWg3-59" value="" style="line;strokeWidth=1;fillColor=none;align=left;verticalAlign=middle;spacingTop=-1;spacingLeft=3;spacingRight=3;rotatable=0;labelPosition=right;points=[];portConstraint=eastwest;strokeColor=#788AA3;fontColor=#46495D;" parent="ZkBrrvWP60tN9h73OWg3-57" vertex="1">
          <mxGeometry y="52" width="160" height="8" as="geometry" />
        </mxCell>
        <mxCell id="ZkBrrvWP60tN9h73OWg3-60" value="+ pocion(Jugador j):void" style="text;strokeColor=none;fillColor=none;align=left;verticalAlign=top;spacingLeft=4;spacingRight=4;overflow=hidden;rotatable=0;points=[[0,0.5],[1,0.5]];portConstraint=eastwest;fontColor=#46495D;" parent="ZkBrrvWP60tN9h73OWg3-57" vertex="1">
          <mxGeometry y="60" width="160" height="26" as="geometry" />
        </mxCell>
        <mxCell id="ZkBrrvWP60tN9h73OWg3-61" value="EFECTO TEMPORAL" style="swimlane;fontStyle=1;align=center;verticalAlign=top;childLayout=stackLayout;horizontal=1;startSize=26;horizontalStack=0;resizeParent=1;resizeParentMax=0;resizeLast=0;collapsible=1;marginBottom=0;fillColor=#B2C9AB;strokeColor=#788AA3;fontColor=#46495D;" parent="WIyWlLk6GJQsqaUBKTNV-1" vertex="1">
          <mxGeometry x="450" y="877" width="200" height="110" as="geometry" />
        </mxCell>
        <mxCell id="ZkBrrvWP60tN9h73OWg3-62" value="+ field: type" style="text;strokeColor=none;fillColor=none;align=left;verticalAlign=top;spacingLeft=4;spacingRight=4;overflow=hidden;rotatable=0;points=[[0,0.5],[1,0.5]];portConstraint=eastwest;fontColor=#46495D;" parent="ZkBrrvWP60tN9h73OWg3-61" vertex="1">
          <mxGeometry y="26" width="200" height="26" as="geometry" />
        </mxCell>
        <mxCell id="ZkBrrvWP60tN9h73OWg3-63" value="" style="line;strokeWidth=1;fillColor=none;align=left;verticalAlign=middle;spacingTop=-1;spacingLeft=3;spacingRight=3;rotatable=0;labelPosition=right;points=[];portConstraint=eastwest;strokeColor=#788AA3;fontColor=#46495D;" parent="ZkBrrvWP60tN9h73OWg3-61" vertex="1">
          <mxGeometry y="52" width="200" height="8" as="geometry" />
        </mxCell>
        <mxCell id="ZkBrrvWP60tN9h73OWg3-64" value="+ cuarentena_obligatoria(): void&#xa;+ otorgar_sas(): Arma_Sanitaria" style="text;strokeColor=none;fillColor=none;align=left;verticalAlign=top;spacingLeft=4;spacingRight=4;overflow=hidden;rotatable=0;points=[[0,0.5],[1,0.5]];portConstraint=eastwest;fontColor=#46495D;" parent="ZkBrrvWP60tN9h73OWg3-61" vertex="1">
          <mxGeometry y="60" width="200" height="50" as="geometry" />
        </mxCell>
        <mxCell id="ZkBrrvWP60tN9h73OWg3-82" value="1" style="text;html=1;align=center;verticalAlign=middle;resizable=0;points=[];autosize=1;fontColor=#46495D;" parent="WIyWlLk6GJQsqaUBKTNV-1" vertex="1">
          <mxGeometry x="650" y="563" width="20" height="20" as="geometry" />
        </mxCell>
        <mxCell id="ZkBrrvWP60tN9h73OWg3-84" value="1" style="endArrow=open;html=1;endSize=12;startArrow=diamondThin;startSize=14;startFill=0;edgeStyle=orthogonalEdgeStyle;align=left;verticalAlign=bottom;strokeColor=#788AA3;fillColor=#B2C9AB;fontColor=#46495D;entryX=0;entryY=0.154;entryDx=0;entryDy=0;entryPerimeter=0;" parent="WIyWlLk6GJQsqaUBKTNV-1" source="ZkBrrvWP60tN9h73OWg3-24" target="ZkBrrvWP60tN9h73OWg3-33" edge="1">
          <mxGeometry x="-1" y="3" relative="1" as="geometry">
            <mxPoint x="260" y="807.5" as="sourcePoint" />
            <mxPoint x="420" y="807.5" as="targetPoint" />
            <Array as="points" />
          </mxGeometry>
        </mxCell>
        <mxCell id="ZkBrrvWP60tN9h73OWg3-87" value="ENTIDAD" style="swimlane;fontStyle=3;align=center;verticalAlign=top;childLayout=stackLayout;horizontal=1;startSize=26;horizontalStack=0;resizeParent=1;resizeParentMax=0;resizeLast=0;collapsible=1;marginBottom=0;rounded=0;sketch=0;strokeColor=#788AA3;fillColor=#B2C9AB;fontColor=#46495D;" parent="WIyWlLk6GJQsqaUBKTNV-1" vertex="1">
          <mxGeometry x="-90" y="350" width="160" height="86" as="geometry" />
        </mxCell>
        <mxCell id="ZkBrrvWP60tN9h73OWg3-88" value="+ field: type" style="text;strokeColor=none;fillColor=none;align=left;verticalAlign=top;spacingLeft=4;spacingRight=4;overflow=hidden;rotatable=0;points=[[0,0.5],[1,0.5]];portConstraint=eastwest;fontColor=#46495D;" parent="ZkBrrvWP60tN9h73OWg3-87" vertex="1">
          <mxGeometry y="26" width="160" height="26" as="geometry" />
        </mxCell>
        <mxCell id="ZkBrrvWP60tN9h73OWg3-89" value="" style="line;strokeWidth=1;fillColor=none;align=left;verticalAlign=middle;spacingTop=-1;spacingLeft=3;spacingRight=3;rotatable=0;labelPosition=right;points=[];portConstraint=eastwest;strokeColor=#788AA3;fontColor=#46495D;" parent="ZkBrrvWP60tN9h73OWg3-87" vertex="1">
          <mxGeometry y="52" width="160" height="8" as="geometry" />
        </mxCell>
        <mxCell id="ZkBrrvWP60tN9h73OWg3-90" value="+ method(type): type" style="text;strokeColor=none;fillColor=none;align=left;verticalAlign=top;spacingLeft=4;spacingRight=4;overflow=hidden;rotatable=0;points=[[0,0.5],[1,0.5]];portConstraint=eastwest;fontColor=#46495D;" parent="ZkBrrvWP60tN9h73OWg3-87" vertex="1">
          <mxGeometry y="60" width="160" height="26" as="geometry" />
        </mxCell>
        <mxCell id="aDcXiVbsg2Yg2f7QTapv-3" style="edgeStyle=orthogonalEdgeStyle;rounded=0;orthogonalLoop=1;jettySize=auto;html=1;entryX=0.5;entryY=0;entryDx=0;entryDy=0;strokeColor=#788AA3;fontColor=#46495D;" parent="WIyWlLk6GJQsqaUBKTNV-1" source="ZkBrrvWP60tN9h73OWg3-91" target="ZkBrrvWP60tN9h73OWg3-87" edge="1">
          <mxGeometry relative="1" as="geometry">
            <mxPoint x="-10" y="340" as="targetPoint" />
          </mxGeometry>
        </mxCell>
        <mxCell id="ZkBrrvWP60tN9h73OWg3-91" value="JUEGO&#xa;" style="swimlane;fontStyle=1;align=center;verticalAlign=top;childLayout=stackLayout;horizontal=1;startSize=26;horizontalStack=0;resizeParent=1;resizeParentMax=0;resizeLast=0;collapsible=1;marginBottom=0;rounded=0;sketch=0;strokeColor=#788AA3;fillColor=#B2C9AB;fontColor=#46495D;" parent="WIyWlLk6GJQsqaUBKTNV-1" vertex="1">
          <mxGeometry x="-90" y="170" width="160" height="86" as="geometry" />
        </mxCell>
        <mxCell id="ZkBrrvWP60tN9h73OWg3-92" value="+ field: type" style="text;strokeColor=none;fillColor=none;align=left;verticalAlign=top;spacingLeft=4;spacingRight=4;overflow=hidden;rotatable=0;points=[[0,0.5],[1,0.5]];portConstraint=eastwest;fontColor=#46495D;" parent="ZkBrrvWP60tN9h73OWg3-91" vertex="1">
          <mxGeometry y="26" width="160" height="26" as="geometry" />
        </mxCell>
        <mxCell id="ZkBrrvWP60tN9h73OWg3-93" value="" style="line;strokeWidth=1;fillColor=none;align=left;verticalAlign=middle;spacingTop=-1;spacingLeft=3;spacingRight=3;rotatable=0;labelPosition=right;points=[];portConstraint=eastwest;strokeColor=#788AA3;fontColor=#46495D;" parent="ZkBrrvWP60tN9h73OWg3-91" vertex="1">
          <mxGeometry y="52" width="160" height="8" as="geometry" />
        </mxCell>
        <mxCell id="ZkBrrvWP60tN9h73OWg3-94" value="+ method(type): type" style="text;strokeColor=none;fillColor=none;align=left;verticalAlign=top;spacingLeft=4;spacingRight=4;overflow=hidden;rotatable=0;points=[[0,0.5],[1,0.5]];portConstraint=eastwest;fontColor=#46495D;" parent="ZkBrrvWP60tN9h73OWg3-91" vertex="1">
          <mxGeometry y="60" width="160" height="26" as="geometry" />
        </mxCell>
        <mxCell id="ZkBrrvWP60tN9h73OWg3-120" style="edgeStyle=orthogonalEdgeStyle;curved=0;rounded=1;sketch=0;orthogonalLoop=1;jettySize=auto;html=1;strokeColor=#788AA3;fillColor=#B2C9AB;fontColor=#46495D;" parent="WIyWlLk6GJQsqaUBKTNV-1" source="ZkBrrvWP60tN9h73OWg3-95" target="ZkBrrvWP60tN9h73OWg3-91" edge="1">
          <mxGeometry relative="1" as="geometry" />
        </mxCell>
        <mxCell id="ZkBrrvWP60tN9h73OWg3-95" value="GUI" style="swimlane;fontStyle=1;align=center;verticalAlign=top;childLayout=stackLayout;horizontal=1;startSize=26;horizontalStack=0;resizeParent=1;resizeParentMax=0;resizeLast=0;collapsible=1;marginBottom=0;rounded=0;sketch=0;strokeColor=#788AA3;fillColor=#B2C9AB;fontColor=#46495D;" parent="WIyWlLk6GJQsqaUBKTNV-1" vertex="1">
          <mxGeometry x="-90" y="20" width="160" height="86" as="geometry" />
        </mxCell>
        <mxCell id="ZkBrrvWP60tN9h73OWg3-96" value="+ field: type" style="text;strokeColor=none;fillColor=none;align=left;verticalAlign=top;spacingLeft=4;spacingRight=4;overflow=hidden;rotatable=0;points=[[0,0.5],[1,0.5]];portConstraint=eastwest;fontColor=#46495D;" parent="ZkBrrvWP60tN9h73OWg3-95" vertex="1">
          <mxGeometry y="26" width="160" height="26" as="geometry" />
        </mxCell>
        <mxCell id="ZkBrrvWP60tN9h73OWg3-97" value="" style="line;strokeWidth=1;fillColor=none;align=left;verticalAlign=middle;spacingTop=-1;spacingLeft=3;spacingRight=3;rotatable=0;labelPosition=right;points=[];portConstraint=eastwest;strokeColor=#788AA3;fontColor=#46495D;" parent="ZkBrrvWP60tN9h73OWg3-95" vertex="1">
          <mxGeometry y="52" width="160" height="8" as="geometry" />
        </mxCell>
        <mxCell id="ZkBrrvWP60tN9h73OWg3-98" value="+ method(type): type" style="text;strokeColor=none;fillColor=none;align=left;verticalAlign=top;spacingLeft=4;spacingRight=4;overflow=hidden;rotatable=0;points=[[0,0.5],[1,0.5]];portConstraint=eastwest;fontColor=#46495D;" parent="ZkBrrvWP60tN9h73OWg3-95" vertex="1">
          <mxGeometry y="60" width="160" height="26" as="geometry" />
        </mxCell>
        <mxCell id="ZkBrrvWP60tN9h73OWg3-99" value="Extends" style="endArrow=block;endSize=16;endFill=0;html=1;strokeColor=#788AA3;fillColor=#B2C9AB;fontColor=#46495D;exitX=0.5;exitY=0;exitDx=0;exitDy=0;" parent="WIyWlLk6GJQsqaUBKTNV-1" source="ZkBrrvWP60tN9h73OWg3-47" target="ZkBrrvWP60tN9h73OWg3-24" edge="1">
          <mxGeometry width="160" relative="1" as="geometry">
            <mxPoint x="-40" y="786" as="sourcePoint" />
            <mxPoint x="150" y="812" as="targetPoint" />
            <Array as="points">
              <mxPoint x="150" y="901" />
            </Array>
            <mxPoint as="offset" />
          </mxGeometry>
        </mxCell>
        <mxCell id="ZkBrrvWP60tN9h73OWg3-106" value="Relation" style="endArrow=open;html=1;endSize=12;startArrow=diamondThin;startSize=14;startFill=0;edgeStyle=orthogonalEdgeStyle;strokeColor=#788AA3;fillColor=#B2C9AB;fontColor=#46495D;" parent="WIyWlLk6GJQsqaUBKTNV-1" source="ZkBrrvWP60tN9h73OWg3-91" target="ZkBrrvWP60tN9h73OWg3-8" edge="1">
          <mxGeometry relative="1" as="geometry">
            <mxPoint x="-80" y="260" as="sourcePoint" />
            <mxPoint x="80" y="260" as="targetPoint" />
          </mxGeometry>
        </mxCell>
        <mxCell id="ZkBrrvWP60tN9h73OWg3-107" value="1" style="edgeLabel;resizable=0;html=1;align=left;verticalAlign=top;fontColor=#46495D;" parent="ZkBrrvWP60tN9h73OWg3-106" connectable="0" vertex="1">
          <mxGeometry x="-1" relative="1" as="geometry" />
        </mxCell>
        <mxCell id="ZkBrrvWP60tN9h73OWg3-108" value="2" style="edgeLabel;resizable=0;html=1;align=right;verticalAlign=top;fontColor=#46495D;" parent="ZkBrrvWP60tN9h73OWg3-106" connectable="0" vertex="1">
          <mxGeometry x="1" relative="1" as="geometry" />
        </mxCell>
        <mxCell id="ZkBrrvWP60tN9h73OWg3-110" value="ARMA SANITARIA" style="swimlane;fontStyle=1;align=center;verticalAlign=top;childLayout=stackLayout;horizontal=1;startSize=26;horizontalStack=0;resizeParent=1;resizeParentMax=0;resizeLast=0;collapsible=1;marginBottom=0;rounded=0;sketch=0;strokeColor=#788AA3;fillColor=#B2C9AB;fontColor=#46495D;" parent="WIyWlLk6GJQsqaUBKTNV-1" vertex="1">
          <mxGeometry x="-500" y="807" width="160" height="86" as="geometry" />
        </mxCell>
        <mxCell id="ZkBrrvWP60tN9h73OWg3-111" value="+ field: type" style="text;strokeColor=none;fillColor=none;align=left;verticalAlign=top;spacingLeft=4;spacingRight=4;overflow=hidden;rotatable=0;points=[[0,0.5],[1,0.5]];portConstraint=eastwest;fontColor=#46495D;" parent="ZkBrrvWP60tN9h73OWg3-110" vertex="1">
          <mxGeometry y="26" width="160" height="26" as="geometry" />
        </mxCell>
        <mxCell id="ZkBrrvWP60tN9h73OWg3-112" value="" style="line;strokeWidth=1;fillColor=none;align=left;verticalAlign=middle;spacingTop=-1;spacingLeft=3;spacingRight=3;rotatable=0;labelPosition=right;points=[];portConstraint=eastwest;strokeColor=#788AA3;fontColor=#46495D;" parent="ZkBrrvWP60tN9h73OWg3-110" vertex="1">
          <mxGeometry y="52" width="160" height="8" as="geometry" />
        </mxCell>
        <mxCell id="ZkBrrvWP60tN9h73OWg3-113" value="+ method(type): type" style="text;strokeColor=none;fillColor=none;align=left;verticalAlign=top;spacingLeft=4;spacingRight=4;overflow=hidden;rotatable=0;points=[[0,0.5],[1,0.5]];portConstraint=eastwest;fontColor=#46495D;" parent="ZkBrrvWP60tN9h73OWg3-110" vertex="1">
          <mxGeometry y="60" width="160" height="26" as="geometry" />
        </mxCell>
        <mxCell id="ZkBrrvWP60tN9h73OWg3-118" value="1" style="endArrow=open;html=1;endSize=12;startArrow=diamondThin;startSize=14;startFill=0;edgeStyle=orthogonalEdgeStyle;align=left;verticalAlign=bottom;strokeColor=#788AA3;fillColor=#B2C9AB;fontColor=#46495D;" parent="WIyWlLk6GJQsqaUBKTNV-1" source="ZkBrrvWP60tN9h73OWg3-40" target="ZkBrrvWP60tN9h73OWg3-110" edge="1">
          <mxGeometry x="-0.7279" y="-3" relative="1" as="geometry">
            <mxPoint x="-170" y="827.67" as="sourcePoint" />
            <mxPoint x="-10" y="827.67" as="targetPoint" />
            <Array as="points">
              <mxPoint x="-300" y="828" />
            </Array>
            <mxPoint as="offset" />
          </mxGeometry>
        </mxCell>
        <mxCell id="ZkBrrvWP60tN9h73OWg3-134" value="Extends" style="endArrow=block;endSize=16;endFill=0;html=1;strokeColor=#788AA3;fillColor=#B2C9AB;fontColor=#46495D;exitX=0.5;exitY=0;exitDx=0;exitDy=0;entryX=0.434;entryY=1.019;entryDx=0;entryDy=0;entryPerimeter=0;" parent="WIyWlLk6GJQsqaUBKTNV-1" source="ZkBrrvWP60tN9h73OWg3-61" target="ZkBrrvWP60tN9h73OWg3-35" edge="1">
          <mxGeometry x="0.0835" y="12" width="160" relative="1" as="geometry">
            <mxPoint x="587" y="877" as="sourcePoint" />
            <mxPoint x="747" y="877" as="targetPoint" />
            <Array as="points">
              <mxPoint x="759" y="877" />
            </Array>
            <mxPoint as="offset" />
          </mxGeometry>
        </mxCell>
        <mxCell id="ZkBrrvWP60tN9h73OWg3-135" value="Extends" style="endArrow=block;endSize=16;endFill=0;html=1;strokeColor=#788AA3;fillColor=#B2C9AB;fontColor=#46495D;exitX=0.5;exitY=0;exitDx=0;exitDy=0;entryX=0.431;entryY=1.058;entryDx=0;entryDy=0;entryPerimeter=0;" parent="WIyWlLk6GJQsqaUBKTNV-1" source="ZkBrrvWP60tN9h73OWg3-57" target="ZkBrrvWP60tN9h73OWg3-35" edge="1">
          <mxGeometry x="-0.0432" y="-10" width="160" relative="1" as="geometry">
            <mxPoint x="810" y="895" as="sourcePoint" />
            <mxPoint x="970" y="895" as="targetPoint" />
            <Array as="points">
              <mxPoint x="759" y="875" />
            </Array>
            <mxPoint y="-1" as="offset" />
          </mxGeometry>
        </mxCell>
        <mxCell id="aDcXiVbsg2Yg2f7QTapv-0" value="Extends" style="endArrow=block;endSize=16;endFill=0;html=1;strokeColor=#788AA3;fontColor=#46495D;" parent="WIyWlLk6GJQsqaUBKTNV-1" source="ZkBrrvWP60tN9h73OWg3-36" target="ZkBrrvWP60tN9h73OWg3-87" edge="1">
          <mxGeometry width="160" relative="1" as="geometry">
            <mxPoint x="-30" y="540" as="sourcePoint" />
            <mxPoint x="130" y="540" as="targetPoint" />
            <Array as="points" />
          </mxGeometry>
        </mxCell>
        <mxCell id="aDcXiVbsg2Yg2f7QTapv-1" value="Extends" style="endArrow=block;endSize=16;endFill=0;html=1;exitX=0.5;exitY=0;exitDx=0;exitDy=0;strokeColor=#788AA3;fontColor=#46495D;" parent="WIyWlLk6GJQsqaUBKTNV-1" source="ZkBrrvWP60tN9h73OWg3-20" target="ZkBrrvWP60tN9h73OWg3-87" edge="1">
          <mxGeometry width="160" relative="1" as="geometry">
            <mxPoint x="-670" y="540" as="sourcePoint" />
            <mxPoint x="-510" y="540" as="targetPoint" />
            <Array as="points">
              <mxPoint x="-10" y="530" />
            </Array>
          </mxGeometry>
        </mxCell>
        <mxCell id="aDcXiVbsg2Yg2f7QTapv-2" value="Extends" style="endArrow=block;endSize=16;endFill=0;html=1;exitX=0.5;exitY=0;exitDx=0;exitDy=0;strokeColor=#788AA3;fontColor=#46495D;" parent="WIyWlLk6GJQsqaUBKTNV-1" source="ZkBrrvWP60tN9h73OWg3-32" target="ZkBrrvWP60tN9h73OWg3-87" edge="1">
          <mxGeometry width="160" relative="1" as="geometry">
            <mxPoint x="-110" y="600" as="sourcePoint" />
            <mxPoint x="240" y="510" as="targetPoint" />
            <Array as="points">
              <mxPoint x="-10" y="530" />
            </Array>
          </mxGeometry>
        </mxCell>
        <mxCell id="aDcXiVbsg2Yg2f7QTapv-4" value="PROYECTIL ENEMIGO" style="swimlane;fontStyle=1;align=center;verticalAlign=top;childLayout=stackLayout;horizontal=1;startSize=26;horizontalStack=0;resizeParent=1;resizeParentMax=0;resizeLast=0;collapsible=1;marginBottom=0;fillColor=#B2C9AB;strokeColor=#788AA3;fontColor=#46495D;" parent="WIyWlLk6GJQsqaUBKTNV-1" vertex="1">
          <mxGeometry x="-800" y="790" width="160" height="86" as="geometry" />
        </mxCell>
        <mxCell id="aDcXiVbsg2Yg2f7QTapv-5" value="+ field: type" style="text;strokeColor=none;fillColor=none;align=left;verticalAlign=top;spacingLeft=4;spacingRight=4;overflow=hidden;rotatable=0;points=[[0,0.5],[1,0.5]];portConstraint=eastwest;fontColor=#46495D;" parent="aDcXiVbsg2Yg2f7QTapv-4" vertex="1">
          <mxGeometry y="26" width="160" height="26" as="geometry" />
        </mxCell>
        <mxCell id="aDcXiVbsg2Yg2f7QTapv-6" value="" style="line;strokeWidth=1;fillColor=none;align=left;verticalAlign=middle;spacingTop=-1;spacingLeft=3;spacingRight=3;rotatable=0;labelPosition=right;points=[];portConstraint=eastwest;strokeColor=#788AA3;fontColor=#46495D;" parent="aDcXiVbsg2Yg2f7QTapv-4" vertex="1">
          <mxGeometry y="52" width="160" height="8" as="geometry" />
        </mxCell>
        <mxCell id="aDcXiVbsg2Yg2f7QTapv-7" value="+ method(type): type" style="text;strokeColor=none;fillColor=none;align=left;verticalAlign=top;spacingLeft=4;spacingRight=4;overflow=hidden;rotatable=0;points=[[0,0.5],[1,0.5]];portConstraint=eastwest;fontColor=#46495D;" parent="aDcXiVbsg2Yg2f7QTapv-4" vertex="1">
          <mxGeometry y="60" width="160" height="26" as="geometry" />
        </mxCell>
        <mxCell id="aDcXiVbsg2Yg2f7QTapv-8" value="PROYECTIL JUGADOR" style="swimlane;fontStyle=1;align=center;verticalAlign=top;childLayout=stackLayout;horizontal=1;startSize=26;horizontalStack=0;resizeParent=1;resizeParentMax=0;resizeLast=0;collapsible=1;marginBottom=0;fillColor=#B2C9AB;strokeColor=#788AA3;fontColor=#46495D;" parent="WIyWlLk6GJQsqaUBKTNV-1" vertex="1">
          <mxGeometry x="-1140" y="790" width="160" height="86" as="geometry" />
        </mxCell>
        <mxCell id="aDcXiVbsg2Yg2f7QTapv-9" value="+ field: type" style="text;strokeColor=none;fillColor=none;align=left;verticalAlign=top;spacingLeft=4;spacingRight=4;overflow=hidden;rotatable=0;points=[[0,0.5],[1,0.5]];portConstraint=eastwest;fontColor=#46495D;" parent="aDcXiVbsg2Yg2f7QTapv-8" vertex="1">
          <mxGeometry y="26" width="160" height="26" as="geometry" />
        </mxCell>
        <mxCell id="aDcXiVbsg2Yg2f7QTapv-10" value="" style="line;strokeWidth=1;fillColor=none;align=left;verticalAlign=middle;spacingTop=-1;spacingLeft=3;spacingRight=3;rotatable=0;labelPosition=right;points=[];portConstraint=eastwest;strokeColor=#788AA3;fontColor=#46495D;" parent="aDcXiVbsg2Yg2f7QTapv-8" vertex="1">
          <mxGeometry y="52" width="160" height="8" as="geometry" />
        </mxCell>
        <mxCell id="aDcXiVbsg2Yg2f7QTapv-11" value="+ method(type): type" style="text;strokeColor=none;fillColor=none;align=left;verticalAlign=top;spacingLeft=4;spacingRight=4;overflow=hidden;rotatable=0;points=[[0,0.5],[1,0.5]];portConstraint=eastwest;fontColor=#46495D;" parent="aDcXiVbsg2Yg2f7QTapv-8" vertex="1">
          <mxGeometry y="60" width="160" height="26" as="geometry" />
        </mxCell>
        <mxCell id="aDcXiVbsg2Yg2f7QTapv-13" value="Extends" style="endArrow=block;endSize=16;endFill=0;html=1;exitX=0.5;exitY=0;exitDx=0;exitDy=0;strokeColor=#788AA3;fontColor=#46495D;" parent="WIyWlLk6GJQsqaUBKTNV-1" source="aDcXiVbsg2Yg2f7QTapv-8" target="ZkBrrvWP60tN9h73OWg3-20" edge="1">
          <mxGeometry width="160" relative="1" as="geometry">
            <mxPoint x="-1010" y="750" as="sourcePoint" />
            <mxPoint x="-1000" y="870" as="targetPoint" />
            <Array as="points">
              <mxPoint x="-880" y="790" />
            </Array>
          </mxGeometry>
        </mxCell>
        <mxCell id="aDcXiVbsg2Yg2f7QTapv-12" value="Extends" style="endArrow=block;endSize=16;endFill=0;html=1;exitX=0.5;exitY=0;exitDx=0;exitDy=0;strokeColor=#788AA3;fontColor=#46495D;" parent="WIyWlLk6GJQsqaUBKTNV-1" source="aDcXiVbsg2Yg2f7QTapv-4" target="ZkBrrvWP60tN9h73OWg3-20" edge="1">
          <mxGeometry width="160" relative="1" as="geometry">
            <mxPoint x="-780" y="740" as="sourcePoint" />
            <mxPoint x="-620" y="740" as="targetPoint" />
            <Array as="points">
              <mxPoint x="-880" y="790" />
            </Array>
          </mxGeometry>
        </mxCell>
        <mxCell id="aDcXiVbsg2Yg2f7QTapv-14" value="VISITOR" style="swimlane;fontStyle=3;align=center;verticalAlign=top;childLayout=stackLayout;horizontal=1;startSize=26;horizontalStack=0;resizeParent=1;resizeParentMax=0;resizeLast=0;collapsible=1;marginBottom=0;rounded=0;sketch=0;strokeColor=#788AA3;fillColor=#B2C9AB;fontColor=#46495D;" parent="WIyWlLk6GJQsqaUBKTNV-1" vertex="1">
          <mxGeometry x="-1710" y="30" width="210" height="170" as="geometry" />
        </mxCell>
        <mxCell id="aDcXiVbsg2Yg2f7QTapv-15" value="+ field: type" style="text;strokeColor=none;fillColor=none;align=left;verticalAlign=top;spacingLeft=4;spacingRight=4;overflow=hidden;rotatable=0;points=[[0,0.5],[1,0.5]];portConstraint=eastwest;" parent="aDcXiVbsg2Yg2f7QTapv-14" vertex="1">
          <mxGeometry y="26" width="210" height="26" as="geometry" />
        </mxCell>
        <mxCell id="aDcXiVbsg2Yg2f7QTapv-16" value="" style="line;strokeWidth=1;fillColor=none;align=left;verticalAlign=middle;spacingTop=-1;spacingLeft=3;spacingRight=3;rotatable=0;labelPosition=right;points=[];portConstraint=eastwest;" parent="aDcXiVbsg2Yg2f7QTapv-14" vertex="1">
          <mxGeometry y="52" width="210" height="8" as="geometry" />
        </mxCell>
        <mxCell id="aDcXiVbsg2Yg2f7QTapv-17" value="+ visit (j: Jugador): void&#xa;+ visit (a: InfectadoAlpha): void&#xa;+ visit (b: InfectadoBeta): void&#xa;+ visit (p: EfectoTemporal): void&#xa;+ visit (p: ObjetosPreciosos): void&#xa;+ visit (p: ProyectilJugador): void&#xa;+ visit (p: ProyectilInfectado): void" style="text;strokeColor=none;fillColor=none;align=left;verticalAlign=top;spacingLeft=4;spacingRight=4;overflow=hidden;rotatable=0;points=[[0,0.5],[1,0.5]];portConstraint=eastwest;" parent="aDcXiVbsg2Yg2f7QTapv-14" vertex="1">
          <mxGeometry y="60" width="210" height="110" as="geometry" />
        </mxCell>
        <mxCell id="aDcXiVbsg2Yg2f7QTapv-19" value="VISITOR INFECTADO ALPHA" style="swimlane;fontStyle=1;align=center;verticalAlign=top;childLayout=stackLayout;horizontal=1;startSize=26;horizontalStack=0;resizeParent=1;resizeParentMax=0;resizeLast=0;collapsible=1;marginBottom=0;rounded=0;sketch=0;strokeColor=#788AA3;fillColor=#B2C9AB;fontColor=#46495D;" parent="WIyWlLk6GJQsqaUBKTNV-1" vertex="1">
          <mxGeometry x="-2220" y="330" width="180" height="86" as="geometry" />
        </mxCell>
        <mxCell id="aDcXiVbsg2Yg2f7QTapv-20" value="+ field: type" style="text;strokeColor=none;fillColor=none;align=left;verticalAlign=top;spacingLeft=4;spacingRight=4;overflow=hidden;rotatable=0;points=[[0,0.5],[1,0.5]];portConstraint=eastwest;" parent="aDcXiVbsg2Yg2f7QTapv-19" vertex="1">
          <mxGeometry y="26" width="180" height="26" as="geometry" />
        </mxCell>
        <mxCell id="aDcXiVbsg2Yg2f7QTapv-21" value="" style="line;strokeWidth=1;fillColor=none;align=left;verticalAlign=middle;spacingTop=-1;spacingLeft=3;spacingRight=3;rotatable=0;labelPosition=right;points=[];portConstraint=eastwest;" parent="aDcXiVbsg2Yg2f7QTapv-19" vertex="1">
          <mxGeometry y="52" width="180" height="8" as="geometry" />
        </mxCell>
        <mxCell id="aDcXiVbsg2Yg2f7QTapv-22" value="+ method(type): type" style="text;strokeColor=none;fillColor=none;align=left;verticalAlign=top;spacingLeft=4;spacingRight=4;overflow=hidden;rotatable=0;points=[[0,0.5],[1,0.5]];portConstraint=eastwest;" parent="aDcXiVbsg2Yg2f7QTapv-19" vertex="1">
          <mxGeometry y="60" width="180" height="26" as="geometry" />
        </mxCell>
        <mxCell id="aDcXiVbsg2Yg2f7QTapv-23" value="VISITOR JUGADOR" style="swimlane;fontStyle=1;align=center;verticalAlign=top;childLayout=stackLayout;horizontal=1;startSize=26;horizontalStack=0;resizeParent=1;resizeParentMax=0;resizeLast=0;collapsible=1;marginBottom=0;rounded=0;sketch=0;strokeColor=#788AA3;fillColor=#B2C9AB;fontColor=#46495D;" parent="WIyWlLk6GJQsqaUBKTNV-1" vertex="1">
          <mxGeometry x="-2410" y="330" width="160" height="86" as="geometry" />
        </mxCell>
        <mxCell id="aDcXiVbsg2Yg2f7QTapv-24" value="+ field: type" style="text;strokeColor=none;fillColor=none;align=left;verticalAlign=top;spacingLeft=4;spacingRight=4;overflow=hidden;rotatable=0;points=[[0,0.5],[1,0.5]];portConstraint=eastwest;" parent="aDcXiVbsg2Yg2f7QTapv-23" vertex="1">
          <mxGeometry y="26" width="160" height="26" as="geometry" />
        </mxCell>
        <mxCell id="aDcXiVbsg2Yg2f7QTapv-25" value="" style="line;strokeWidth=1;fillColor=none;align=left;verticalAlign=middle;spacingTop=-1;spacingLeft=3;spacingRight=3;rotatable=0;labelPosition=right;points=[];portConstraint=eastwest;" parent="aDcXiVbsg2Yg2f7QTapv-23" vertex="1">
          <mxGeometry y="52" width="160" height="8" as="geometry" />
        </mxCell>
        <mxCell id="aDcXiVbsg2Yg2f7QTapv-26" value="+ method(type): type" style="text;strokeColor=none;fillColor=none;align=left;verticalAlign=top;spacingLeft=4;spacingRight=4;overflow=hidden;rotatable=0;points=[[0,0.5],[1,0.5]];portConstraint=eastwest;" parent="aDcXiVbsg2Yg2f7QTapv-23" vertex="1">
          <mxGeometry y="60" width="160" height="26" as="geometry" />
        </mxCell>
        <mxCell id="aDcXiVbsg2Yg2f7QTapv-27" value="VISITOR INFECTADO BETA" style="swimlane;fontStyle=1;align=center;verticalAlign=top;childLayout=stackLayout;horizontal=1;startSize=26;horizontalStack=0;resizeParent=1;resizeParentMax=0;resizeLast=0;collapsible=1;marginBottom=0;rounded=0;sketch=0;strokeColor=#788AA3;fillColor=#B2C9AB;fontColor=#46495D;" parent="WIyWlLk6GJQsqaUBKTNV-1" vertex="1">
          <mxGeometry x="-2010" y="330" width="160" height="86" as="geometry" />
        </mxCell>
        <mxCell id="aDcXiVbsg2Yg2f7QTapv-28" value="+ field: type" style="text;strokeColor=none;fillColor=none;align=left;verticalAlign=top;spacingLeft=4;spacingRight=4;overflow=hidden;rotatable=0;points=[[0,0.5],[1,0.5]];portConstraint=eastwest;" parent="aDcXiVbsg2Yg2f7QTapv-27" vertex="1">
          <mxGeometry y="26" width="160" height="26" as="geometry" />
        </mxCell>
        <mxCell id="aDcXiVbsg2Yg2f7QTapv-29" value="" style="line;strokeWidth=1;fillColor=none;align=left;verticalAlign=middle;spacingTop=-1;spacingLeft=3;spacingRight=3;rotatable=0;labelPosition=right;points=[];portConstraint=eastwest;" parent="aDcXiVbsg2Yg2f7QTapv-27" vertex="1">
          <mxGeometry y="52" width="160" height="8" as="geometry" />
        </mxCell>
        <mxCell id="aDcXiVbsg2Yg2f7QTapv-30" value="+ method(type): type" style="text;strokeColor=none;fillColor=none;align=left;verticalAlign=top;spacingLeft=4;spacingRight=4;overflow=hidden;rotatable=0;points=[[0,0.5],[1,0.5]];portConstraint=eastwest;" parent="aDcXiVbsg2Yg2f7QTapv-27" vertex="1">
          <mxGeometry y="60" width="160" height="26" as="geometry" />
        </mxCell>
        <mxCell id="aDcXiVbsg2Yg2f7QTapv-31" value="VISITOR OBJETOS PRECIOSOS&#xa;" style="swimlane;fontStyle=1;align=center;verticalAlign=top;childLayout=stackLayout;horizontal=1;startSize=26;horizontalStack=0;resizeParent=1;resizeParentMax=0;resizeLast=0;collapsible=1;marginBottom=0;rounded=0;sketch=0;strokeColor=#788AA3;fillColor=#B2C9AB;fontColor=#46495D;" parent="WIyWlLk6GJQsqaUBKTNV-1" vertex="1">
          <mxGeometry x="-1110" y="330" width="190" height="86" as="geometry" />
        </mxCell>
        <mxCell id="aDcXiVbsg2Yg2f7QTapv-32" value="+ field: type" style="text;strokeColor=none;fillColor=none;align=left;verticalAlign=top;spacingLeft=4;spacingRight=4;overflow=hidden;rotatable=0;points=[[0,0.5],[1,0.5]];portConstraint=eastwest;" parent="aDcXiVbsg2Yg2f7QTapv-31" vertex="1">
          <mxGeometry y="26" width="190" height="26" as="geometry" />
        </mxCell>
        <mxCell id="aDcXiVbsg2Yg2f7QTapv-33" value="" style="line;strokeWidth=1;fillColor=none;align=left;verticalAlign=middle;spacingTop=-1;spacingLeft=3;spacingRight=3;rotatable=0;labelPosition=right;points=[];portConstraint=eastwest;" parent="aDcXiVbsg2Yg2f7QTapv-31" vertex="1">
          <mxGeometry y="52" width="190" height="8" as="geometry" />
        </mxCell>
        <mxCell id="aDcXiVbsg2Yg2f7QTapv-34" value="+ method(type): type" style="text;strokeColor=none;fillColor=none;align=left;verticalAlign=top;spacingLeft=4;spacingRight=4;overflow=hidden;rotatable=0;points=[[0,0.5],[1,0.5]];portConstraint=eastwest;" parent="aDcXiVbsg2Yg2f7QTapv-31" vertex="1">
          <mxGeometry y="60" width="190" height="26" as="geometry" />
        </mxCell>
        <mxCell id="aDcXiVbsg2Yg2f7QTapv-36" value="VISITOR EFECTO TEMPORAL" style="swimlane;fontStyle=1;align=center;verticalAlign=top;childLayout=stackLayout;horizontal=1;startSize=26;horizontalStack=0;resizeParent=1;resizeParentMax=0;resizeLast=0;collapsible=1;marginBottom=0;rounded=0;sketch=0;strokeColor=#788AA3;fillColor=#B2C9AB;fontColor=#46495D;" parent="WIyWlLk6GJQsqaUBKTNV-1" vertex="1">
          <mxGeometry x="-1320" y="330" width="180" height="86" as="geometry" />
        </mxCell>
        <mxCell id="aDcXiVbsg2Yg2f7QTapv-37" value="+ field: type" style="text;strokeColor=none;fillColor=none;align=left;verticalAlign=top;spacingLeft=4;spacingRight=4;overflow=hidden;rotatable=0;points=[[0,0.5],[1,0.5]];portConstraint=eastwest;" parent="aDcXiVbsg2Yg2f7QTapv-36" vertex="1">
          <mxGeometry y="26" width="180" height="26" as="geometry" />
        </mxCell>
        <mxCell id="aDcXiVbsg2Yg2f7QTapv-38" value="" style="line;strokeWidth=1;fillColor=none;align=left;verticalAlign=middle;spacingTop=-1;spacingLeft=3;spacingRight=3;rotatable=0;labelPosition=right;points=[];portConstraint=eastwest;" parent="aDcXiVbsg2Yg2f7QTapv-36" vertex="1">
          <mxGeometry y="52" width="180" height="8" as="geometry" />
        </mxCell>
        <mxCell id="aDcXiVbsg2Yg2f7QTapv-39" value="+ method(type): type" style="text;strokeColor=none;fillColor=none;align=left;verticalAlign=top;spacingLeft=4;spacingRight=4;overflow=hidden;rotatable=0;points=[[0,0.5],[1,0.5]];portConstraint=eastwest;" parent="aDcXiVbsg2Yg2f7QTapv-36" vertex="1">
          <mxGeometry y="60" width="180" height="26" as="geometry" />
        </mxCell>
        <mxCell id="aDcXiVbsg2Yg2f7QTapv-40" value="VISITOR PROYECTIL JUGADOR" style="swimlane;fontStyle=1;align=center;verticalAlign=top;childLayout=stackLayout;horizontal=1;startSize=26;horizontalStack=0;resizeParent=1;resizeParentMax=0;resizeLast=0;collapsible=1;marginBottom=0;rounded=0;sketch=0;strokeColor=#788AA3;fillColor=#B2C9AB;fontColor=#46495D;" parent="WIyWlLk6GJQsqaUBKTNV-1" vertex="1">
          <mxGeometry x="-1820" y="330" width="210" height="86" as="geometry" />
        </mxCell>
        <mxCell id="aDcXiVbsg2Yg2f7QTapv-41" value="+ field: type" style="text;strokeColor=none;fillColor=none;align=left;verticalAlign=top;spacingLeft=4;spacingRight=4;overflow=hidden;rotatable=0;points=[[0,0.5],[1,0.5]];portConstraint=eastwest;" parent="aDcXiVbsg2Yg2f7QTapv-40" vertex="1">
          <mxGeometry y="26" width="210" height="26" as="geometry" />
        </mxCell>
        <mxCell id="aDcXiVbsg2Yg2f7QTapv-42" value="" style="line;strokeWidth=1;fillColor=none;align=left;verticalAlign=middle;spacingTop=-1;spacingLeft=3;spacingRight=3;rotatable=0;labelPosition=right;points=[];portConstraint=eastwest;" parent="aDcXiVbsg2Yg2f7QTapv-40" vertex="1">
          <mxGeometry y="52" width="210" height="8" as="geometry" />
        </mxCell>
        <mxCell id="aDcXiVbsg2Yg2f7QTapv-43" value="+ method(type): type" style="text;strokeColor=none;fillColor=none;align=left;verticalAlign=top;spacingLeft=4;spacingRight=4;overflow=hidden;rotatable=0;points=[[0,0.5],[1,0.5]];portConstraint=eastwest;" parent="aDcXiVbsg2Yg2f7QTapv-40" vertex="1">
          <mxGeometry y="60" width="210" height="26" as="geometry" />
        </mxCell>
        <mxCell id="aDcXiVbsg2Yg2f7QTapv-44" value="VISITOR PROYECTIL INFECTADO&#xa;" style="swimlane;fontStyle=1;align=center;verticalAlign=top;childLayout=stackLayout;horizontal=1;startSize=26;horizontalStack=0;resizeParent=1;resizeParentMax=0;resizeLast=0;collapsible=1;marginBottom=0;rounded=0;sketch=0;strokeColor=#788AA3;fillColor=#B2C9AB;fontColor=#46495D;" parent="WIyWlLk6GJQsqaUBKTNV-1" vertex="1">
          <mxGeometry x="-1580" y="330" width="230" height="86" as="geometry" />
        </mxCell>
        <mxCell id="aDcXiVbsg2Yg2f7QTapv-45" value="+ field: type" style="text;strokeColor=none;fillColor=none;align=left;verticalAlign=top;spacingLeft=4;spacingRight=4;overflow=hidden;rotatable=0;points=[[0,0.5],[1,0.5]];portConstraint=eastwest;" parent="aDcXiVbsg2Yg2f7QTapv-44" vertex="1">
          <mxGeometry y="26" width="230" height="26" as="geometry" />
        </mxCell>
        <mxCell id="aDcXiVbsg2Yg2f7QTapv-46" value="" style="line;strokeWidth=1;fillColor=none;align=left;verticalAlign=middle;spacingTop=-1;spacingLeft=3;spacingRight=3;rotatable=0;labelPosition=right;points=[];portConstraint=eastwest;" parent="aDcXiVbsg2Yg2f7QTapv-44" vertex="1">
          <mxGeometry y="52" width="230" height="8" as="geometry" />
        </mxCell>
        <mxCell id="aDcXiVbsg2Yg2f7QTapv-47" value="+ method(type): type" style="text;strokeColor=none;fillColor=none;align=left;verticalAlign=top;spacingLeft=4;spacingRight=4;overflow=hidden;rotatable=0;points=[[0,0.5],[1,0.5]];portConstraint=eastwest;" parent="aDcXiVbsg2Yg2f7QTapv-44" vertex="1">
          <mxGeometry y="60" width="230" height="26" as="geometry" />
        </mxCell>
        <mxCell id="aDcXiVbsg2Yg2f7QTapv-48" value="" style="endArrow=none;html=1;strokeColor=#788AA3;fillColor=#B2C9AB;fontColor=#46495D;" parent="WIyWlLk6GJQsqaUBKTNV-1" edge="1">
          <mxGeometry width="50" height="50" relative="1" as="geometry">
            <mxPoint x="-2370" y="280" as="sourcePoint" />
            <mxPoint x="-1010" y="280" as="targetPoint" />
          </mxGeometry>
        </mxCell>
        <mxCell id="aDcXiVbsg2Yg2f7QTapv-49" value="" style="endArrow=none;html=1;strokeColor=#788AA3;fillColor=#B2C9AB;fontColor=#46495D;exitX=0.25;exitY=0;exitDx=0;exitDy=0;" parent="WIyWlLk6GJQsqaUBKTNV-1" source="aDcXiVbsg2Yg2f7QTapv-23" edge="1">
          <mxGeometry width="50" height="50" relative="1" as="geometry">
            <mxPoint x="-2360" y="320" as="sourcePoint" />
            <mxPoint x="-2370" y="280" as="targetPoint" />
            <Array as="points">
              <mxPoint x="-2370" y="310" />
            </Array>
          </mxGeometry>
        </mxCell>
        <mxCell id="aDcXiVbsg2Yg2f7QTapv-50" value="" style="endArrow=none;html=1;strokeColor=#788AA3;fillColor=#B2C9AB;fontColor=#46495D;" parent="WIyWlLk6GJQsqaUBKTNV-1" edge="1">
          <mxGeometry width="50" height="50" relative="1" as="geometry">
            <mxPoint x="-2120" y="330" as="sourcePoint" />
            <mxPoint x="-2120" y="280" as="targetPoint" />
            <Array as="points">
              <mxPoint x="-2120" y="310" />
            </Array>
          </mxGeometry>
        </mxCell>
        <mxCell id="aDcXiVbsg2Yg2f7QTapv-51" value="" style="endArrow=none;html=1;strokeColor=#788AA3;fillColor=#B2C9AB;fontColor=#46495D;exitX=0.563;exitY=0;exitDx=0;exitDy=0;exitPerimeter=0;" parent="WIyWlLk6GJQsqaUBKTNV-1" source="aDcXiVbsg2Yg2f7QTapv-27" edge="1">
          <mxGeometry width="50" height="50" relative="1" as="geometry">
            <mxPoint x="-1780" y="310" as="sourcePoint" />
            <mxPoint x="-1920" y="280" as="targetPoint" />
          </mxGeometry>
        </mxCell>
        <mxCell id="aDcXiVbsg2Yg2f7QTapv-52" value="" style="endArrow=none;html=1;strokeColor=#788AA3;fillColor=#B2C9AB;fontColor=#46495D;exitX=0.5;exitY=0;exitDx=0;exitDy=0;" parent="WIyWlLk6GJQsqaUBKTNV-1" source="aDcXiVbsg2Yg2f7QTapv-40" edge="1">
          <mxGeometry width="50" height="50" relative="1" as="geometry">
            <mxPoint x="-1380" y="310" as="sourcePoint" />
            <mxPoint x="-1715" y="280" as="targetPoint" />
          </mxGeometry>
        </mxCell>
        <mxCell id="aDcXiVbsg2Yg2f7QTapv-53" value="" style="endArrow=none;html=1;strokeColor=#788AA3;fillColor=#B2C9AB;fontColor=#46495D;exitX=0.5;exitY=0;exitDx=0;exitDy=0;" parent="WIyWlLk6GJQsqaUBKTNV-1" source="aDcXiVbsg2Yg2f7QTapv-44" edge="1">
          <mxGeometry width="50" height="50" relative="1" as="geometry">
            <mxPoint x="-1380" y="310" as="sourcePoint" />
            <mxPoint x="-1465" y="280" as="targetPoint" />
          </mxGeometry>
        </mxCell>
        <mxCell id="aDcXiVbsg2Yg2f7QTapv-54" value="" style="endArrow=none;html=1;strokeColor=#788AA3;fillColor=#B2C9AB;fontColor=#46495D;exitX=0.5;exitY=0;exitDx=0;exitDy=0;" parent="WIyWlLk6GJQsqaUBKTNV-1" source="aDcXiVbsg2Yg2f7QTapv-36" edge="1">
          <mxGeometry width="50" height="50" relative="1" as="geometry">
            <mxPoint x="-1380" y="310" as="sourcePoint" />
            <mxPoint x="-1230" y="280" as="targetPoint" />
          </mxGeometry>
        </mxCell>
        <mxCell id="aDcXiVbsg2Yg2f7QTapv-55" value="" style="endArrow=none;html=1;strokeColor=#788AA3;fillColor=#B2C9AB;fontColor=#46495D;" parent="WIyWlLk6GJQsqaUBKTNV-1" edge="1">
          <mxGeometry width="50" height="50" relative="1" as="geometry">
            <mxPoint x="-1010" y="330" as="sourcePoint" />
            <mxPoint x="-1010" y="280" as="targetPoint" />
            <Array as="points">
              <mxPoint x="-1010" y="310" />
            </Array>
          </mxGeometry>
        </mxCell>
        <mxCell id="aDcXiVbsg2Yg2f7QTapv-56" value="Extends" style="endArrow=block;endSize=16;endFill=0;html=1;strokeColor=#788AA3;fillColor=#B2C9AB;fontColor=#46495D;" parent="WIyWlLk6GJQsqaUBKTNV-1" target="aDcXiVbsg2Yg2f7QTapv-14" edge="1">
          <mxGeometry x="-0.5" y="25" width="160" relative="1" as="geometry">
            <mxPoint x="-1605" y="280" as="sourcePoint" />
            <mxPoint x="-1760" y="290" as="targetPoint" />
            <mxPoint as="offset" />
          </mxGeometry>
        </mxCell>
        <mxCell id="aDcXiVbsg2Yg2f7QTapv-59" style="edgeStyle=orthogonalEdgeStyle;curved=0;rounded=1;sketch=0;orthogonalLoop=1;jettySize=auto;html=1;strokeColor=#788AA3;fillColor=#B2C9AB;fontColor=#46495D;" parent="WIyWlLk6GJQsqaUBKTNV-1" source="ZkBrrvWP60tN9h73OWg3-88" target="aDcXiVbsg2Yg2f7QTapv-14" edge="1">
          <mxGeometry relative="1" as="geometry">
            <Array as="points">
              <mxPoint x="-390" y="389" />
              <mxPoint x="-390" y="115" />
            </Array>
          </mxGeometry>
        </mxCell>
        <mxCell id="aDcXiVbsg2Yg2f7QTapv-60" value="Extends" style="endArrow=block;endSize=16;endFill=0;html=1;strokeColor=#788AA3;fillColor=#B2C9AB;fontColor=#46495D;exitX=0.5;exitY=0;exitDx=0;exitDy=0;entryX=0.563;entryY=1.026;entryDx=0;entryDy=0;entryPerimeter=0;" parent="WIyWlLk6GJQsqaUBKTNV-1" source="ZkBrrvWP60tN9h73OWg3-40" target="ZkBrrvWP60tN9h73OWg3-39" edge="1">
          <mxGeometry x="-0.1913" y="12" width="160" relative="1" as="geometry">
            <mxPoint x="-140" y="720" as="sourcePoint" />
            <mxPoint x="20" y="720" as="targetPoint" />
            <Array as="points">
              <mxPoint y="752" />
            </Array>
            <mxPoint as="offset" />
          </mxGeometry>
        </mxCell>
        <mxCell id="aDcXiVbsg2Yg2f7QTapv-61" value="Extends" style="endArrow=block;endSize=16;endFill=0;html=1;strokeColor=#788AA3;fillColor=#B2C9AB;fontColor=#46495D;exitX=0.5;exitY=0;exitDx=0;exitDy=0;" parent="WIyWlLk6GJQsqaUBKTNV-1" source="ZkBrrvWP60tN9h73OWg3-24" edge="1">
          <mxGeometry x="-0.0967" y="-10" width="160" relative="1" as="geometry">
            <mxPoint x="-140" y="670" as="sourcePoint" />
            <mxPoint y="634" as="targetPoint" />
            <Array as="points">
              <mxPoint y="750" />
            </Array>
            <mxPoint as="offset" />
          </mxGeometry>
        </mxCell>
        <mxCell id="Fme4xh_iQZuGuyhPAv7M-2" value="Extends" style="endArrow=block;endSize=16;endFill=0;html=1;exitX=0.5;exitY=0;exitDx=0;exitDy=0;" parent="WIyWlLk6GJQsqaUBKTNV-1" source="ZkBrrvWP60tN9h73OWg3-51" target="ZkBrrvWP60tN9h73OWg3-24" edge="1">
          <mxGeometry width="160" relative="1" as="geometry">
            <mxPoint x="160" y="900" as="sourcePoint" />
            <mxPoint x="340" y="790" as="targetPoint" />
            <Array as="points">
              <mxPoint x="150" y="900" />
            </Array>
          </mxGeometry>
        </mxCell>
      </root>
    </mxGraphModel>
  </diagram>
</mxfile>
